# xmcd
#
# Track frame offsets:
# 150
# 23472
# 52557
# 79210
# 97065
# 120407
# 135667
# 164635
# 188470
# 219527
#
# Disc length: 3169 seconds
#
#
# Revision: 2
# Processed by: cddbd v1.5.1PL2 Copyright (c) Steve Scherf et al.
# Submitted via: FreeRIP 2.944 
#
DISCID=770c5f0a
DTITLE=Boby Mack And Night Train - Red Hot And Humid
DYEAR=1991
DGENRE=Bluesrock
TTITLE0=Blackjack
TTITLE1=In the open
TTITLE2=Maudie
TTITLE3=Look Watcha Done
TTITLE4=She's so fine
TTITLE5=Phillip West
TTITLE6=Aint nobody's business
TTITLE7=Change my mind
TTITLE8=All night long
TTITLE9=Take it home
EXTD=
EXTT0=
EXTT1=
EXTT2=
EXTT3=
EXTT4=
EXTT5=
EXTT6=
EXTT7=
EXTT8=
EXTT9=
PLAYORDER=
